<svg xmlns="http://www.w3.org/2000/svg" viewBox="0 0 40 40">
  <rect width="40" height="40" rx="8" fill="#2D1B69"/>
  <path d="M27 22.92v2.04a1.36 1.36 0 0 1-1.48 1.36 13.48 13.48 0 0 1-5.88-2.09 13.28 13.28 0 0 1-4.08-4.08 13.48 13.48 0 0 1-2.09-5.91A1.36 1.36 0 0 1 14.83 13h2.04a1.36 1.36 0 0 1 1.36 1.17c.087.654.246 1.296.476 1.914a1.36 1.36 0 0 1-.306 1.436l-.864.864a10.88 10.88 0 0 0 4.08 4.08l.864-.864a1.36 1.36 0 0 1 1.436-.306c.618.23 1.26.39 1.914.476A1.36 1.36 0 0 1 27 22.92z" fill="none" stroke="white" stroke-width="1.5" stroke-linecap="round" stroke-linejoin="round"/>
</svg>
